HIERARCHY
ROOT Hips
{
	OFFSET 0.00000 0.00000 0.00000
	CHANNELS 6 Xposition Yposition Zposition Zrotation Yrotation Xrotation 
	JOINT LHipJoint
	{
		OFFSET 0 0 0
		CHANNELS 3 Zrotation Yrotation Xrotation
		JOINT LeftUpLeg
		{
			OFFSET 1.57358 -1.76629 0.73362
			CHANNELS 3 Zrotation Yrotation Xrotation
			JOINT LeftLeg
			{
				OFFSET 2.40600 -6.61045 0.00000
				CHANNELS 3 Zrotation Yrotation Xrotation
				JOINT LeftFoot
				{
					OFFSET 2.66168 -7.31291 0.00000
					CHANNELS 3 Zrotation Yrotation Xrotation
					JOINT LeftToeBase
					{
						OFFSET 0.20870 -0.57341 2.12506
						CHANNELS 3 Zrotation Yrotation Xrotation
						End Site
						{
							OFFSET 0.00000 -0.00000 1.10557
						}
					}
				}
			}
		}
	}
	JOINT RHipJoint
	{
		OFFSET 0 0 0
		CHANNELS 3 Zrotation Yrotation Xrotation
		JOINT RightUpLeg
		{
			OFFSET -1.49299 -1.76629 0.73362
			CHANNELS 3 Zrotation Yrotation Xrotation
			JOINT RightLeg
			{
				OFFSET -2.43663 -6.69460 0.00000
				CHANNELS 3 Zrotation Yrotation Xrotation
				JOINT RightFoot
				{
					OFFSET -2.62959 -7.22474 0.00000
					CHANNELS 3 Zrotation Yrotation Xrotation
					JOINT RightToeBase
					{
						OFFSET -0.25784 -0.70841 2.21862
						CHANNELS 3 Zrotation Yrotation Xrotation
						End Site
						{
							OFFSET -0.00000 -0.00000 1.16452
						}
					}
				}
			}
		}
	}
	JOINT LowerBack
	{
		OFFSET 0 0 0
		CHANNELS 3 Zrotation Yrotation Xrotation
		JOINT Spine
		{
			OFFSET -0.00034 2.12399 -0.25450
			CHANNELS 3 Zrotation Yrotation Xrotation
			JOINT Spine1
			{
				OFFSET 0.05594 2.14379 -0.03318
				CHANNELS 3 Zrotation Yrotation Xrotation
				JOINT Neck
				{
					OFFSET 0 0 0
					CHANNELS 3 Zrotation Yrotation Xrotation
					JOINT Neck1
					{
						OFFSET -0.09835 1.62725 0.24211
						CHANNELS 3 Zrotation Yrotation Xrotation
						JOINT Head
						{
							OFFSET 0.10849 1.66041 -0.22648
							CHANNELS 3 Zrotation Yrotation Xrotation
							End Site
							{
								OFFSET 0.04385 1.68267 -0.10541
							}
						}
					}
				}
				JOINT LeftShoulder
				{
					OFFSET 0 0 0
					CHANNELS 3 Zrotation Yrotation Xrotation
					JOINT LeftArm
					{
						OFFSET 3.29108 0.79398 -0.68179
						CHANNELS 3 Zrotation Yrotation Xrotation
						JOINT LeftForeArm
						{
							OFFSET 5.15310 -0.00000 -0.00000
							CHANNELS 3 Zrotation Yrotation Xrotation
							JOINT LeftHand
							{
								OFFSET 3.75138 -0.00000 -0.00000
								CHANNELS 3 Zrotation Yrotation Xrotation
								JOINT LeftFingerBase
								{
									OFFSET 0 0 0
									CHANNELS 3 Zrotation Yrotation Xrotation
									JOINT LeftHandIndex1
									{
										OFFSET 0.52917 -0.00000 0.00000
										CHANNELS 3 Zrotation Yrotation Xrotation
										End Site
										{
											OFFSET 0.42663 -0.00000 0.00000
										}
									}
								}
								JOINT LThumb
								{
									OFFSET 0 0 0
									CHANNELS 3 Zrotation Yrotation Xrotation
									End Site
									{
										OFFSET 0.43315 -0.00000 0.43315
									}
								}
							}
						}
					}
				}
				JOINT RightShoulder
				{
					OFFSET 0 0 0
					CHANNELS 3 Zrotation Yrotation Xrotation
					JOINT RightArm
					{
						OFFSET -3.07414 1.06285 -0.44338
						CHANNELS 3 Zrotation Yrotation Xrotation
						JOINT RightForeArm
						{
							OFFSET -5.29613 -0.00000 0.00000
							CHANNELS 3 Zrotation Yrotation Xrotation
							JOINT RightHand
							{
								OFFSET -3.76144 -0.00000 -0.00000
								CHANNELS 3 Zrotation Yrotation Xrotation
								JOINT RightFingerBase
								{
									OFFSET 0 0 0
									CHANNELS 3 Zrotation Yrotation Xrotation
									JOINT RightHandIndex1
									{
										OFFSET -0.74732 -0.00000 0.00000
										CHANNELS 3 Zrotation Yrotation Xrotation
										End Site
										{
											OFFSET -0.60251 -0.00000 0.00000
										}
									}
								}
								JOINT RThumb
								{
									OFFSET 0 0 0
									CHANNELS 3 Zrotation Yrotation Xrotation
									End Site
									{
										OFFSET -0.61171 -0.00000 0.61171
									}
								}
							}
						}
					}
				}
			}
		}
	}
}
MOTION
Frames: 15
Frame Time: .0083333
-9.1874 16.8342 -32.4243 0 0 0 0 0 0 -21 0 0 0 0 0 0 0 0 0 0 0 0 0 0 21 0 0 0 0 0 0 0 0 0 0 0 0 0 0 0 0 0 0 0 0 0 0 -16 0 0 21 0 0 11 0 0 0 -8 0 0 0 0 0 0 0 0 0 0 0 0 0 0 0 0 0 0 0 0 8 0 0 0 0 0 0 0 0 0 0 0 0 0 0 0 0 0
-9.1874 16.8342 -32.4243 5.5649 2.1159 7.8438 0.0000 0.0000 0.0000 -28.6393 -3.0720 10.1853 2.6875 10.1711 29.5325 0.0300 -9.6468 14.2388 1.1277 -6.7451 -18.9625 0.0000 0.0000 0.0000 11.7459 13.3846 -41.7914 -3.2593 -11.1034 32.6295 0.0540 -4.6335 0.5736 -0.0593 -1.5713 4.3224 -8.1458 -5.9668 1.2717 5.8205 -8.1156 -3.9553 10.9437 -3.7751 -2.8893 -14.2514 1.2766 -10.3970 2.1323 3.8568 17.1065 3.3408 1.1204 6.6759 0.0000 -0.0000 0.0000 -89.8576 -2.4198 10.8542 25.2370 -36.4452 -8.4303 -0.0000 -0.0000 0.2198 20.3529 28.8274 10.1411 -7.1250 0.0000 -0.0000 -12.0910 59.9865 -4.4608 0.0000 -0.0000 0.0000 82.0502 -17.0579 1.4965 -8.4783 14.3251 -1.0673 0.0000 0.0000 25.6389 -13.9908 12.0941 -2.9883 7.1250 -0.0000 -0.0000 9.1991 -17.6229 6.0613
-9.2131 16.8643 -32.1560 5.4808 3.1796 1.6969 0.0000 0.0000 0.0000 -28.1526 -0.9201 15.5117 2.8908 10.5161 30.6649 0.4626 -9.0568 19.1898 0.9140 -6.0917 -17.0507 0.0000 0.0000 0.0000 13.6361 11.5249 -34.3541 -3.4477 -11.3867 33.5955 0.0731 -4.9210 -0.5881 -0.1169 -2.2045 6.0712 -8.3996 -5.2033 7.7402 5.0507 -7.5431 -1.9825 10.9301 -3.4358 -4.6606 -13.5817 0.6453 -11.2418 2.1940 3.0191 17.4968 3.2106 0.7454 7.0243 -0.0000 0.0000 0.0000 -89.4291 -3.0090 12.0193 25.0649 -36.2702 -8.3283 -0.0000 -0.0000 0.1367 20.6363 27.3519 9.8167 -7.1250 0.0000 -0.0000 -10.9305 58.5769 -3.6567 -0.0000 0.0000 0.0000 83.3127 -16.5426 -0.1612 -8.6514 14.6032 -1.1106 0.0000 0.0000 25.6800 -13.4576 13.3660 -3.1663 7.1250 -0.0000 -0.0000 9.5501 -16.3723 6.5636
-9.2285 16.8887 -31.8811 5.4774 2.1102 1.4207 0.0000 0.0000 0.0000 -28.3607 -0.7896 13.7401 3.4879 11.4458 33.7987 0.9187 -8.2653 22.9016 0.6984 -5.3419 -14.8864 0.0000 0.0000 0.0000 14.1494 12.1430 -33.4173 -3.6160 -11.6311 34.4390 0.0596 -4.3704 -0.9324 -0.0991 -2.0300 5.5887 -8.5651 -4.6856 7.8249 4.9497 -6.8719 -1.7422 10.8673 -3.1086 -4.6088 -13.3986 0.4890 -11.3829 2.2658 2.7826 17.5435 3.1881 0.6482 7.0827 0.0000 0.0000 0.0000 -89.5612 -2.9289 12.2214 24.9472 -36.1500 -8.2588 -0.0000 0.0000 -0.3825 21.6774 26.4210 10.0301 -7.1250 0.0000 -0.0000 -9.3230 57.8686 -2.9534 0.0000 0.0000 0.0000 83.5646 -16.2675 0.0815 -8.8549 14.9289 -1.1625 0.0000 0.0000 24.8896 -13.5812 12.5804 -3.0120 7.1250 -0.0000 -0.0000 9.4754 -17.1578 6.3464
-9.2466 16.9202 -31.5847 5.0810 2.6805 1.5162 0.0000 0.0000 0.0000 -27.8042 -1.9685 12.2255 4.0781 12.2636 36.6709 1.3830 -7.7210 26.2133 0.7564 -5.5547 -15.4976 0.0000 0.0000 0.0000 14.9172 11.6157 -32.6870 -3.7365 -11.8012 35.0323 0.0575 -4.2735 -2.0462 -0.0645 -1.6392 4.5096 -8.5122 -5.0163 7.8054 5.3279 -7.2974 -2.0231 11.3023 -3.2991 -4.7516 -13.7657 0.6576 -10.8183 2.3766 2.9686 17.5467 3.2909 0.7233 6.9642 0.0000 -0.0000 0.0000 -90.3522 -1.9347 11.8110 25.0275 -36.2321 -8.3062 -0.0000 0.0000 -1.3876 22.2175 26.6154 10.3695 -7.1250 0.0000 -0.0000 -8.8328 58.1877 -2.8643 0.0000 -0.0000 0.0000 82.9083 -16.5112 1.6152 -9.1477 15.3955 -1.2390 0.0000 0.0000 23.6074 -14.4923 9.9230 -2.5504 7.1250 -0.0000 -0.0000 8.8911 -19.7985 5.4190
-9.2693 16.9508 -31.3090 4.3803 2.1757 1.1731 0.0000 0.0000 0.0000 -26.9955 -2.1502 10.3934 4.8122 13.1691 40.0050 2.0763 -6.9548 30.4248 0.2545 -3.2460 -8.9643 0.0000 0.0000 0.0000 16.1315 11.8237 -31.3306 -3.8054 -11.8968 35.3679 0.0457 -4.0908 -3.1355 -0.0931 -1.9678 5.4166 -8.1698 -4.8715 8.0539 5.5816 -7.0714 -2.0025 11.4055 -3.1815 -4.9338 -13.9379 0.7114 -10.2075 2.4980 2.9484 17.4992 3.3468 0.7153 6.8389 0.0000 0.0000 0.0000 -90.6905 -1.3995 11.7482 24.9158 -36.1178 -8.2402 -0.0000 0.0000 -1.8403 21.6055 27.7024 10.4319 -7.1250 0.0000 -0.0000 -10.0633 59.1523 -3.5017 0.0000 0.0000 0.0000 82.7023 -16.5627 2.8235 -9.4479 15.8714 -1.3199 0.0000 0.0000 22.2810 -14.7156 10.9584 -2.8582 7.1250 -0.0000 -0.0000 8.7113 -18.7312 5.5165
-9.2774 17.0098 -31.0257 3.4007 2.7471 0.9349 0.0000 0.0000 0.0000 -25.8532 -3.2913 8.7482 5.5879 14.0167 43.3045 2.2083 -6.3892 30.9240 0.3693 -3.9035 -10.8053 0.0000 0.0000 0.0000 17.5356 11.1959 -29.9590 -3.8205 -11.9177 35.4414 0.0363 -4.3133 -4.4250 -0.1047 -2.0864 5.7444 -6.6459 -4.6513 7.8884 5.3824 -6.6091 -1.5821 10.2153 -3.0282 -4.6916 -13.3563 0.1745 -10.7580 2.7380 2.1662 17.8233 3.2830 0.3847 7.1036 -0.0000 -0.0000 0.0000 -90.0306 -2.2523 13.1987 24.2054 -35.3807 -7.8252 -0.0000 0.0000 -1.9515 20.8627 27.1806 9.8758 -7.1250 0.0000 -0.0000 -10.5931 58.4558 -3.5113 -0.0000 -0.0000 0.0000 83.9149 -15.9858 2.3185 -9.7981 16.4231 -1.4173 0.0000 0.0000 21.1285 -15.2401 11.0361 -2.9855 7.1250 -0.0000 -0.0000 8.3417 -18.6194 5.2981
-9.2921 17.0482 -30.7632 2.7739 1.2366 1.0257 0.0000 0.0000 0.0000 -25.1667 -2.7736 6.1303 6.3809 14.7876 46.4921 2.2391 -5.7075 30.7505 0.1973 -2.8604 -7.8904 0.0000 0.0000 0.0000 18.6689 11.8972 -28.8555 -3.7978 -11.8864 35.3312 0.0107 -3.8276 -4.9662 -0.1331 -2.3511 6.4771 -5.5453 -3.4132 7.4268 4.8455 -4.8427 -0.9331 8.7650 -2.2220 -4.2607 -12.3144 -0.7222 -12.3644 3.1528 0.9105 18.5169 3.1664 -0.1302 7.7127 -0.0000 0.0000 0.0000 -88.8967 -3.5162 15.8331 23.6013 -34.7398 -7.4781 -0.0000 0.0000 -2.2818 20.4581 27.1112 9.6484 -7.1250 0.0000 -0.0000 -10.9935 58.2949 -3.6034 -0.0000 0.0000 0.0000 85.8525 -14.6889 0.5347 -10.0167 16.7658 -1.4798 0.0000 0.0000 20.3325 -15.6201 10.5644 -2.9343 7.1250 -0.0000 -0.0000 8.0805 -19.0784 5.0456
-9.3015 17.0828 -30.5015 2.1650 -0.1711 1.0497 0.0000 0.0000 0.0000 -24.4293 -2.0921 3.6681 7.1767 15.4789 49.5395 1.8083 -5.9276 28.1075 0.2099 -2.9495 -8.1382 0.0000 0.0000 0.0000 19.7852 12.2988 -27.5871 -3.7461 -11.8146 35.0794 -0.0230 -3.1156 -5.5105 -0.1615 -2.5891 7.1369 -6.7425 -4.1989 8.0323 6.4950 -5.9690 -2.0481 11.5244 -2.6390 -5.2864 -14.5595 0.9480 -9.5337 2.9442 3.1970 18.0334 3.6135 0.8063 6.8557 0.0000 -0.0000 0.0000 -91.9012 -0.2766 11.7856 24.0562 -35.2237 -7.7390 -0.0000 0.0000 -2.2174 20.1630 27.8546 9.7351 -7.1250 0.0000 -0.0000 -11.7239 58.9728 -4.0383 0.0000 -0.0000 0.0000 81.5555 -15.9682 6.8788 -10.0768 16.8596 -1.4972 0.0000 0.0000 18.5933 -15.9535 11.2070 -3.1801 7.1250 -0.0000 -0.0000 7.8390 -18.3978 5.0114
-9.2904 17.1269 -30.2277 1.5877 0.1815 0.7583 0.0000 0.0000 0.0000 -23.7223 -2.7430 2.0821 7.9743 16.1004 52.4702 1.3914 -6.6937 25.6014 0.0500 -1.4428 -3.9682 0.0000 0.0000 0.0000 20.7038 11.3157 -26.1509 -3.6941 -11.7418 34.8246 -0.0612 -2.8155 -6.5669 -0.1967 -2.8560 7.8781 -5.5241 -3.9803 8.2562 6.1778 -5.5637 -1.8948 10.4330 -2.4721 -5.4873 -13.8974 0.5767 -9.3706 3.1040 2.5221 17.9177 3.5041 0.5453 6.8481 0.0000 -0.0000 0.0000 -91.3375 -0.3301 13.1471 23.5408 -34.6748 -7.4437 -0.0000 0.0000 -2.4357 19.5366 28.2852 9.5447 -7.1250 0.0000 -0.0000 -12.6558 59.2572 -4.4521 0.0000 -0.0000 0.0000 82.5055 -15.4044 5.6650 -10.0448 16.8096 -1.4879 0.0000 0.0000 18.8406 -16.6088 12.9162 -3.8145 7.1250 -0.0000 -0.0000 7.3828 -16.5927 5.0092
-9.2901 17.1659 -29.9509 0.9030 0.6697 0.5778 0.0000 0.0000 0.0000 -22.7865 -3.4732 0.3943 8.7203 16.6243 55.1178 0.8888 -7.1011 21.7474 0.0544 -1.5048 -4.1389 0.0000 0.0000 0.0000 21.7517 10.4980 -24.7700 -3.6267 -11.6464 34.4921 -0.0980 -2.8892 -7.7057 -0.1980 -2.8651 7.9035 -4.2272 -3.8304 8.1050 5.8621 -5.2358 -1.6233 9.2616 -2.3711 -5.3213 -13.2148 0.0933 -9.5411 3.2045 1.7577 17.9627 3.3701 0.2305 6.9582 -0.0000 0.0000 0.0000 -90.6864 -0.6588 14.4337 22.7933 -33.8620 -7.0228 -0.0000 0.0000 -1.9466 19.0439 27.3126 9.0001 -7.1250 0.0000 -0.0000 -12.6220 58.1809 -4.1129 -0.0000 0.0000 0.0000 83.5533 -14.5976 5.1263 -10.1743 17.0118 -1.5256 0.0000 0.0000 18.4245 -16.8644 12.3287 -3.7035 7.1250 -0.0000 -0.0000 7.2020 -17.1780 4.7919
-9.2796 17.1752 -29.7260 0.4385 -2.6692 0.9903 0.0000 0.0000 0.0000 -22.4141 -1.3556 -3.0937 9.4290 17.0760 57.5623 0.5999 -6.8073 18.6731 0.0672 -1.6721 -4.6004 0.0000 0.0000 0.0000 22.5733 12.1625 -23.8731 -3.5551 -11.5436 34.1359 -0.1341 -1.6000 -7.6987 -0.2077 -2.9343 8.0960 -4.0979 -2.8356 7.9842 6.1180 -3.8703 -1.7535 9.3332 -1.6718 -5.6371 -13.4320 0.2801 -9.1028 3.1446 1.9916 17.9559 3.3990 0.3221 6.8599 0.0000 -0.0000 0.0000 -91.2785 0.0754 14.1697 22.3361 -33.3548 -6.7697 -0.0000 0.0000 -0.6601 19.0861 26.0760 8.6480 -7.1250 0.0000 -0.0000 -11.9120 56.9581 -3.5247 0.0000 -0.0000 0.0000 82.9331 -14.4144 7.5312 -10.5690 17.6246 -1.6430 0.0000 0.0000 16.7596 -16.7269 9.8934 -2.9558 7.1250 -0.0000 -0.0000 7.3043 -19.7010 4.4504
-9.3000 17.2226 -29.4430 0.1186 -1.8144 0.7460 0.0000 0.0000 0.0000 -21.7246 -2.4128 -4.5565 10.0041 17.4122 59.5021 0.3594 -7.1234 16.1223 0.1377 -2.3915 -6.5889 0.0000 0.0000 0.0000 23.2270 11.2289 -22.3157 -3.4743 -11.4259 33.7302 -0.1880 -1.8007 -9.0574 -0.2661 -3.3186 9.1670 -4.4177 -3.4869 8.1569 6.6633 -4.7526 -1.9268 10.2444 -2.0860 -5.6851 -13.9447 0.7602 -8.6470 2.9679 2.6883 18.0204 3.4716 0.6038 6.7433 -0.0000 -0.0000 0.0000 -92.4377 1.2692 13.0223 22.2039 -33.2067 -6.6972 -0.0000 -0.0000 0.6499 19.3681 25.5935 8.6347 -7.1250 0.0000 -0.0000 -11.3729 56.5343 -3.2452 -0.0000 -0.0000 0.0000 81.5608 -14.2214 10.5584 -10.9511 18.2132 -1.7606 0.0000 0.0000 15.1585 -16.3630 9.3698 -2.7368 7.1250 -0.0000 -0.0000 7.5706 -20.2623 4.5194
-9.3126 17.2629 -29.1716 -0.1050 -1.5640 0.6415 0.0000 0.0000 0.0000 -21.2701 -3.1013 -6.2987 10.4945 17.6787 61.1287 0.1495 -6.9509 12.8730 0.3681 -3.8970 -10.7871 0.0000 0.0000 0.0000 23.7179 10.6344 -20.9527 -3.3960 -11.3101 33.3329 -0.2452 -1.6969 -10.1338 -0.3265 -3.6728 10.1579 -4.2896 -3.5079 8.0721 6.6876 -4.7693 -1.7319 10.1744 -2.1178 -5.4331 -13.8805 0.6030 -9.0229 3.0000 2.5231 18.2104 3.4688 0.5231 6.8851 0.0000 -0.0000 0.0000 -92.6391 1.4588 13.1735 21.8833 -32.8449 -6.5224 -0.0000 -0.0000 1.8903 18.5475 24.6101 7.9540 -7.1250 0.0000 -0.0000 -11.7525 55.3803 -3.0251 0.0000 -0.0000 0.0000 81.5420 -13.2697 11.5628 -11.2988 18.7448 -1.8708 0.0000 0.0000 13.9854 -16.1600 9.3025 -2.6818 7.1250 -0.0000 -0.0000 7.7168 -20.3429 4.5942
-9.3182 17.2896 -28.9094 -0.3664 -1.8244 0.7848 0.0000 0.0000 0.0000 -20.8382 -3.4207 -8.3929 10.8873 17.8795 62.4150 0.0693 -6.5380 10.9019 0.3357 -3.7234 -10.2998 0.0000 0.0000 0.0000 24.2174 10.2823 -19.8570 -3.3122 -11.1841 32.9032 -0.2895 -1.4413 -10.7936 -0.2764 -3.3813 9.3422 -3.8159 -3.2100 7.7013 6.4617 -4.3320 -1.4933 9.5515 -1.9402 -5.1070 -13.4148 0.2672 -9.6062 3.0655 2.0731 18.4420 3.3924 0.3352 7.1022 0.0000 0.0000 0.0000 -92.3418 1.4637 14.0867 21.4347 -32.3322 -6.2808 -0.0000 -0.0000 2.7095 18.5309 23.9782 7.7571 -7.1250 0.0000 -0.0000 -11.4792 54.7429 -2.7746 0.0000 0.0000 0.0000 82.1852 -12.1612 11.5766 -11.5931 19.1916 -1.9665 0.0000 0.0000 13.5491 -16.5831 8.5813 -2.5442 7.1250 -0.0000 -0.0000 7.4267 -21.0637 4.2969
